# xmcd CD database file
#
# Track frame offsets:
#	150
#	30957
#	62098
#	95271
#	121881
#	141484
#	154982
#	184943
#	207774
#	232638
#
# Disc length: 3475 seconds
#
# Revision: 0
# Processed by: cddbd v1.5.1PL0 Copyright (c) Steve Scherf et al.
# Submitted via: CDex 1.50
#
DISCID=7d0d910a
DTITLE=Tina Tandler Blue Band - Joy Of Life
DYEAR=1900
DGENRE=Jazz
TTITLE0=Joy of live
TTITLE1=Birdland
TTITLE2=Maceos Blues
TTITLE3=Les is mo
TTITLE4=Getting on
TTITLE5=Take 5
TTITLE6=Lily
TTITLE7=Synchrodestany
TTITLE8=B-Pop
TTITLE9=(Bonus Track)
EXTD=
EXTT0=
EXTT1=
EXTT2=
EXTT3=
EXTT4=
EXTT5=
EXTT6=
EXTT7=
EXTT8=
EXTT9=
PLAYORDER=
